# File created by Blade
# Date/Time:  Tue Apr 07 20:22:14 2015
# Frame Rate: 120.000 fps
#------------------------------------------------------
:FULLY-SPECIFIED
:DEGREES
1008
root 1.504368 32.931175 -9.400459 13.379717 -1.985298 1.569158
Spine -12.165674 -4.029372 -1.578365
Head 14.459728 -1.838942 1.766807
LeftShoulder -19.775644 39.495607 23.843347
LeftArm 52.238738 -52.193595 -52.042014
LeftForeArm 5.032403 -0.000000 4.801236
LeftHand 9.869773 -0.000000 9.088606
LeftHandThumb1 -26.253704 0.000000 33.147579
RightShoulder -5.856979 2.444908 -29.259171
RightArm 11.142311 11.786475 48.193868
RightForeArm -9.269077 -0.000000 3.552684
RightHand 9.181254 0.000000 -3.503644
RightHandThumb1 -24.326973 -0.000000 -32.862282
LeftUpLeg -14.062337 -22.244539 3.934478
LeftLeg 6.466347 -0.000000 -0.000000
LeftFoot -4.988062 9.252109 -8.319323
LeftToeBase -16.180783 -0.000000 0.000000
RightUpLeg -13.757098 1.699078 -2.166244
RightLeg 8.847522 -0.000000 -0.000000
RightFoot -14.299232 -6.990724 8.951124
RightToeBase 4.487196 -0.000000 -0.000000
1009
root 1.479036 32.943770 -9.384010 13.244155 -1.695984 1.663504
Spine -12.033333 -4.250676 -1.700611
Head 14.362320 -1.934347 1.797049
LeftShoulder -19.729534 39.380624 23.901995
LeftArm 52.276394 -52.368803 -52.129168
LeftForeArm 5.422567 -0.000000 4.719431
LeftHand 9.814809 -0.000000 9.214703
LeftHandThumb1 -26.253704 0.000000 33.147579
RightShoulder -5.957382 2.585538 -29.380338
RightArm 11.051207 12.055336 48.045663
RightForeArm -9.652611 -0.000000 3.407821
RightHand 9.205076 0.000000 -3.680104
RightHandThumb1 -24.326973 -0.000000 -32.862282
LeftUpLeg -13.961355 -22.080856 3.761847
LeftLeg 6.554514 -0.000000 -0.000000
LeftFoot -4.661058 9.150552 -8.209709
LeftToeBase -16.564068 -0.000000 0.000000
RightUpLeg -13.547819 1.082666 -2.065974
RightLeg 8.644662 -0.000000 -0.000000
RightFoot -13.528316 -7.061528 8.364699
RightToeBase 4.988788 -0.000000 -0.000000
1010
root 1.454062 32.958975 -9.367785 13.129143 -1.409250 1.741449
Spine -11.922445 -4.474592 -1.798074
Head 14.271542 -2.028018 1.808058
LeftShoulder -19.687889 39.291580 23.955042
LeftArm 52.376571 -52.610751 -52.306305
LeftForeArm 5.822382 -0.000000 4.613368
LeftHand 9.701564 0.000000 9.646552
LeftHandThumb1 -26.253704 0.000000 33.147579
RightShoulder -6.062057 2.767738 -29.539113
RightArm 10.929583 12.323084 47.885876
RightForeArm -10.054602 -0.000000 3.235859
RightHand 9.200363 -0.000000 -3.845597
RightHandThumb1 -24.326973 -0.000000 -32.862282
LeftUpLeg -13.869368 -21.836160 3.589737
LeftLeg 6.665030 -0.000000 -0.000000
LeftFoot -4.407340 8.961247 -8.187996
LeftToeBase -16.502220 -0.000000 0.000000
RightUpLeg -13.321639 0.492739 -1.955095
RightLeg 8.408539 -0.000000 -0.000000
RightFoot -12.912077 -7.097451 7.941669
RightToeBase 4.758719 -0.000000 -0.000000
1011
root 1.432362 32.978145 -9.347695 12.997194 -1.146995 1.791438
Spine -11.800740 -4.673882 -1.855661
Head 14.194689 -2.098071 1.793548
LeftShoulder -19.718477 39.329025 23.899493
LeftArm 52.795299 -52.973169 -52.765935
LeftForeArm 6.098394 -0.000000 4.497093
LeftHand 9.574698 -0.000000 10.574288
LeftHandThumb1 -26.253704 0.000000 33.147579
RightShoulder -6.155200 2.839215 -29.670524
RightArm 10.883976 12.571531 47.638264
RightForeArm -10.404485 -0.000000 3.063182
RightHand 9.360204 0.000000 -3.921680
RightHandThumb1 -24.326973 -0.000000 -32.862282
LeftUpLeg -13.708814 -21.538157 3.370906
LeftLeg 6.683749 -0.000000 -0.000000
LeftFoot -4.040001 8.964646 -7.976347
LeftToeBase -16.874879 -0.000000 0.000000
RightUpLeg -13.056537 -0.157592 -1.802301
RightLeg 8.150820 -0.000000 -0.000000
RightFoot -12.289320 -7.118601 7.631502
RightToeBase 4.417114 -0.000000 -0.000000
1012
root 1.417305 32.999478 -9.327223 12.897339 -0.886805 1.897522
Spine -11.716053 -4.905287 -1.956792
Head 14.119050 -2.151418 1.766333
LeftShoulder -19.847162 39.452531 23.810652
LeftArm 53.542374 -53.550557 -53.667653
LeftForeArm 6.863613 0.000000 4.449311
LeftHand 9.553130 -0.000000 10.825042
LeftHandThumb1 -26.253704 0.000000 33.147579
RightShoulder -6.224490 3.155104 -29.859554
RightArm 10.625487 12.679511 47.340911
RightForeArm -10.578823 -0.000000 2.901578
RightHand 9.373715 -0.000000 -3.859767
RightHandThumb1 -24.326973 -0.000000 -32.862282
LeftUpLeg -13.569140 -21.229093 3.089846
LeftLeg 6.720293 -0.000000 -0.000000
LeftFoot -3.708104 8.931297 -7.775900
LeftToeBase -16.815141 -0.000000 0.000000
RightUpLeg -12.924311 -1.080366 -1.671516
RightLeg 8.106143 -0.000000 -0.000000
RightFoot -11.782111 -6.890818 7.297371
RightToeBase 4.037034 -0.000000 -0.000000
1013
root 1.397419 33.028344 -9.307648 12.852429 -0.636718 1.904576
Spine -11.711861 -5.088099 -1.956705
Head 14.118860 -2.234799 1.720191
LeftShoulder -19.906301 39.502807 23.746066
LeftArm 53.884267 -53.874222 -54.069244
LeftForeArm 7.002929 -0.000000 4.413262
LeftHand 9.170635 0.000000 11.938822
LeftHandThumb1 -26.253704 0.000000 33.147579
RightShoulder -6.332474 3.041523 -29.920455
RightArm 10.731134 12.934174 46.975881
RightForeArm -10.904857 0.000000 2.712670
RightHand 9.782345 0.000000 -4.225220
RightHandThumb1 -24.326973 -0.000000 -32.862282
LeftUpLeg -13.468933 -20.859041 2.882626
LeftLeg 6.739437 -0.000000 -0.000000
LeftFoot -3.296226 9.107191 -7.314929
LeftToeBase -16.955845 -0.000000 0.000000
RightUpLeg -12.749535 -1.860015 -1.467716
RightLeg 7.860687 -0.000000 -0.000000
RightFoot -11.120245 -6.781061 6.879264
RightToeBase 3.794692 -0.000000 -0.000000
